<svg xmlns="http://www.w3.org/2000/svg" xmlns:xlink="http://www.w3.org/1999/xlink" width="27.997" height="28" viewBox="0 0 27.997 28"><defs><clipPath id="a"><rect width="27.997" height="28" fill="none"/></clipPath></defs><g transform="translate(0 0)" clip-path="url(#a)"><path d="M8,20c12.654,13.016,18.555,6.225,18.555,6.225s1.586-1.456,1.428-2.561c-.111-.733-1.211-1.688-2.213-2.682a8.384,8.384,0,0,0-2.454-2.041c-1.457-.418-2.84,1.652-2.84,1.652-2.588,3.117-9.323-3.749-9.323-3.749S4.283,10.114,7.409,7.516c0,0,2.065-1.383,1.642-2.829A8.383,8.383,0,0,0,7.015,2.219C6.017,1.226,5.071.131,4.328.01,3.23-.148,1.777,1.449,1.777,1.449S-5.032,7.34,8,19.994Z" transform="translate(0 0)" fill="#fff"/></g></svg>